Coordinates
version=1
nRows=11
nColumns=36
inDegrees=yes

Units are S.I. units (second, meters, Newtons, ...)
If the header above contains a line with 'inDegrees', this indicates whether rotational values are in degrees (yes) or radians (no).

endheader
time	pelvis_tilt	pelvis_list	pelvis_rotation	pelvis_tx	pelvis_ty	pelvis_tz	hip_flexion_r	hip_adduction_r	hip_rotation_r	knee_angle_r	knee_angle_r_beta	ankle_angle_r	subtalar_angle_r	mtp_angle_r	hip_flexion_l	hip_adduction_l	hip_rotation_l	knee_angle_l	knee_angle_l_beta	ankle_angle_l	subtalar_angle_l	mtp_angle_l	lumbar_extension	lumbar_bending	lumbar_rotation	arm_flex_r	arm_add_r	arm_rot_r	elbow_flex_r	pro_sup_r	arm_flex_l	arm_add_l	arm_rot_l	elbow_flex_l	pro_sup_l
      3.12083330	    -11.57522675	      3.11819853	     -0.33035653	      0.31883338	      0.88665017	     -0.00481567	     33.90207285	     -9.20727358	      2.25322571	     35.47348710	      0.61912915	     15.54492190	    -14.92794058	     -7.49999987	     32.39046432	     -6.51569564	     -0.97534529	     32.51523085	      0.56749784	     13.67972054	     -5.06190625	     -7.49999987	    -16.68276458	      6.83003157	      2.88520010	     29.59734525	    -19.62771635	      9.71640903	     45.02452460	     67.39454284	     40.48189338	    -30.64333808	     -7.86917692	     73.33457548	     43.89949515
      3.12500000	    -11.27259120	      2.97447667	     -0.30293255	      0.31885286	      0.88417061	     -0.00473890	     33.24845140	     -8.96711008	      2.59715942	     34.91422266	      0.60936814	     14.91380414	    -15.79338691	     -7.49999987	     32.16070851	     -6.62967401	     -0.81527458	     32.50724641	      0.56735848	     13.35176665	     -5.28499572	     -7.49999987	    -17.08251353	      7.05709838	      3.05025835	     29.73902585	    -19.56968145	      9.46541061	     44.15207713	     67.33143543	     40.31781244	    -29.77228070	     -8.89690934	     73.27981964	     43.61625091
      3.12916670	    -11.32579022	      2.88659877	     -0.42884636	      0.31838650	      0.88438403	     -0.00456393	     33.39051022	     -8.74789897	      2.78434954	     34.97065242	      0.61035303	     14.75935542	    -16.22705079	     -7.49999987	     32.32855816	     -6.78062605	     -0.80905280	     32.64108577	      0.56969442	     13.39727046	     -5.22575794	     -7.49999987	    -17.07393097	      7.25114441	      3.33623202	     29.60576372	    -19.61239324	      9.15407828	     44.11459400	     66.73953884	     39.81862600	    -28.84718536	     -9.85662561	     73.39929285	     44.28469611
      3.13333330	    -11.44010304	      2.83051984	     -0.34477667	      0.31870737	      0.88457882	     -0.00487202	     33.41879969	     -8.68861162	      2.77227055	     34.84749866	      0.60820359	     14.77244151	    -16.52307923	     -7.49999987	     32.54699551	     -6.79832524	     -0.65380208	     32.71851204	      0.57104576	     13.37861076	     -5.12780013	     -7.49999987	    -16.80466652	      7.48983754	      2.69514596	     30.12545378	    -19.14608063	     10.18076350	     43.14553394	     67.19299902	     38.52691881	    -28.76659756	    -11.40218907	     74.16614729	     41.51219529
      3.13750000	    -11.55982674	      2.76889856	     -0.36010925	      0.31847814	      0.88776132	     -0.00509789	     33.14098415	     -8.60292166	      2.69642358	     34.05470469	      0.59436672	     14.55351739	    -16.64480883	     -7.49999987	     32.60486360	     -6.82908571	     -0.61098668	     32.61175529	      0.56918250	     13.20553307	     -5.13896572	     -7.49999987	    -16.58647151	      7.65924188	      2.99795645	     29.79920219	    -19.27684665	     10.01417172	     43.17177226	     66.76939178	     38.35045574	    -28.09427709	    -11.74202558	     73.85901337	     42.06334255
      3.14166670	    -11.35345270	      2.54095819	     -0.37428402	      0.32328500	      0.89121215	     -0.00158353	     32.12119249	     -8.18892530	      2.62405671	     32.94293355	      0.57496266	     14.46557014	    -16.81774768	     -7.49999987	     31.91270525	     -7.10590637	     -0.51904944	     32.01709982	      0.55880381	     13.06282814	     -4.93223100	     -7.49999987	    -16.48354520	      7.88785289	      3.08019124	     29.43181554	    -19.08957928	      9.90600600	     42.43610907	     66.72316505	     37.98780666	    -27.50229153	    -12.15396770	     73.30460801	     41.57987987
      3.14583330	    -11.32621847	      2.45082592	     -0.43724989	      0.32284426	      0.89110179	     -0.00119381	     31.59371995	     -7.93384075	      2.54824496	     32.26697753	      0.56316500	     14.41116126	    -16.69667614	     -7.49999987	     31.45998587	     -7.25352974	     -0.48702276	     31.47500056	      0.54934239	     12.95686056	     -4.93834525	     -7.49999987	    -16.15380847	      7.83564121	      3.21124299	     28.82116144	    -18.90530659	      9.91655095	     42.00793923	     66.74564226	     37.32689047	    -26.86280485	    -12.13077555	     73.23214894	     41.35490169
      3.15000000	    -10.87465936	      2.25307180	     -0.59221588	      0.32265362	      0.89173016	     -0.00159279	     30.63518405	     -7.67201503	      2.45246852	     31.32775357	      0.54677245	     13.89571358	    -16.79684897	     -7.49999987	     30.62255862	     -7.45225676	     -0.31691839	     30.96913453	      0.54051336	     12.79661395	     -5.20846927	     -7.49999987	    -16.35929947	      7.98770337	      3.42487926	     28.75453826	    -18.63442507	      9.72103411	     40.95712877	     66.68214107	     37.05486639	    -25.99190712	    -12.76611513	     72.66807488	     40.82003365
      3.15416670	    -10.67619532	      2.16373363	     -0.61558650	      0.32214921	      0.89503950	     -0.00159757	     30.02835379	     -7.59194746	      2.16807537	     30.61460361	      0.53432563	     13.66164371	    -16.60688871	     -7.49999987	     30.09917735	     -7.47085872	     -0.17881975	     30.41319328	      0.53081036	     12.56333066	     -5.47201945	     -7.49999987	    -16.31792241	      8.02909987	      3.49914023	     28.47249357	    -18.49681592	      9.50324037	     40.30143373	     66.27353763	     36.61340930	    -25.26742997	    -13.13750979	     72.12479534	     41.14219059
      3.15833330	    -10.34977143	      2.02476557	     -0.71370716	      0.32635956	      0.89259872	      0.00285379	     28.98814470	     -7.30816135	      2.21485616	     29.66471573	      0.51774696	     13.54602949	    -16.68182075	     -7.49999987	     29.31138831	     -7.68835623	      0.03083944	     29.84293418	      0.52085746	     12.47782827	     -5.80043764	     -7.49999987	    -16.17417825	      8.04369092	      3.41871374	     28.37994677	    -18.01007981	      9.40994139	     39.12059967	     66.23133389	     36.04008014	    -24.84965839	    -13.50579394	     71.30029845	     40.19220102
      3.16250000	    -10.38830327	      2.00935358	     -0.93010462	      0.32917225	      0.88996231	     -0.00063665	     28.50458195	     -7.32695920	      2.21879940	     29.00570332	      0.50624502	     13.58424245	    -16.45037406	     -7.49999987	     28.85154915	     -7.65366452	      0.23399790	     29.36602440	      0.51253381	     12.84486681	     -6.11405342	     -7.49999987	    -15.64725794	      7.92833670	      3.46614030	     27.59412527	    -17.97585910	      9.41545389	     38.72115282	     66.18735340	     35.11910712	    -24.54087780	    -13.47075506	     71.04822862	     40.11288966
